<svg width="27" height="47" viewBox="0 0 27 47" fill="none" xmlns="http://www.w3.org/2000/svg">
<path d="M23.417 46.2603C23.0269 46.2621 22.6404 46.186 22.2802 46.0365C21.9199 45.8869 21.5932 45.667 21.3191 45.3894L1.5274 25.5978C0.971452 25.0411 0.65918 24.2866 0.65918 23.4998C0.65918 22.7131 0.971452 21.9586 1.5274 21.4019L21.3191 1.61026C21.8818 1.08586 22.6262 0.800369 23.3953 0.813939C24.1644 0.827509 24.8982 1.13908 25.4422 1.683C25.9861 2.22693 26.2976 2.96075 26.3112 3.72985C26.3248 4.49896 26.0393 5.24331 25.5149 5.80609L7.82115 23.4998L25.5149 41.1936C26.0708 41.7502 26.3831 42.5048 26.3831 43.2915C26.3831 44.0782 26.0708 44.8328 25.5149 45.3894C25.2408 45.667 24.914 45.8869 24.5538 46.0365C24.1935 46.186 23.807 46.2621 23.417 46.2603Z" fill="#C26DBC"/>
</svg>
