<svg width="21" height="21" viewBox="0 0 21 21" fill="none" xmlns="http://www.w3.org/2000/svg">
<path d="M10.5 13.3438C10.4138 13.3442 10.3283 13.3274 10.2487 13.2944C10.169 13.2613 10.0968 13.2127 10.0362 13.1513L5.66122 8.77633C5.57396 8.64867 5.53459 8.4943 5.55004 8.34044C5.56549 8.18658 5.63477 8.04312 5.74567 7.93536C5.85657 7.82759 6.00196 7.76246 6.1562 7.75143C6.31044 7.7404 6.46362 7.78419 6.58872 7.87508L10.5 11.7601L14.4112 7.87508C14.5346 7.79511 14.6812 7.75887 14.8276 7.77216C14.974 7.78545 15.1116 7.8475 15.2186 7.94837C15.3255 8.04924 15.3955 8.18308 15.4172 8.32845C15.439 8.47382 15.4114 8.6223 15.3387 8.75008L10.9637 13.1251C10.9054 13.1912 10.8342 13.2447 10.7544 13.2823C10.6747 13.3199 10.5881 13.3409 10.5 13.3438Z" fill="#6C757D"/>
</svg>
