<svg width="27" height="47" viewBox="0 0 27 47" fill="none" xmlns="http://www.w3.org/2000/svg">
<path d="M3.58333 46.2603C3.19327 46.2621 2.80677 46.186 2.44652 46.0365C2.08626 45.8869 1.7595 45.667 1.48541 45.3894C0.92946 44.8328 0.617187 44.0782 0.617188 43.2915C0.617187 42.5048 0.92946 41.7502 1.48541 41.1936L19.1792 23.4998L1.48541 5.80609C0.96101 5.24331 0.675519 4.49896 0.689089 3.72985C0.702659 2.96075 1.01423 2.22693 1.55816 1.683C2.10208 1.13908 2.8359 0.827509 3.60501 0.813939C4.37412 0.800369 5.11846 1.08586 5.68124 1.61026L25.4729 21.4019C26.0289 21.9586 26.3411 22.7131 26.3411 23.4998C26.3411 24.2866 26.0289 25.0411 25.4729 25.5978L5.68124 45.3894C5.40715 45.667 5.08039 45.8869 4.72013 46.0365C4.35988 46.186 3.97338 46.2621 3.58333 46.2603Z" fill="#C26DBC"/>
</svg>
