<svg width="24" height="24" viewBox="0 0 24 24" fill="none" xmlns="http://www.w3.org/2000/svg">
<path d="M4.20974 20.5201C4.1135 20.5211 4.01802 20.503 3.92877 20.467C3.83953 20.431 3.7583 20.3776 3.68974 20.3101C3.61115 20.2324 3.55067 20.1384 3.51264 20.0347C3.47461 19.931 3.45996 19.8201 3.46974 19.7101L3.77974 15.8701C3.79304 15.6917 3.87132 15.5245 3.99974 15.4001L15.0597 4.34007C15.676 3.76298 16.4959 3.45373 17.3397 3.48007C18.1781 3.48658 18.9826 3.81193 19.5897 4.39007C20.1721 4.98807 20.507 5.78403 20.5274 6.61849C20.5478 7.45296 20.2522 8.26433 19.6997 8.89007L8.62974 20.0001C8.50585 20.1235 8.34361 20.2011 8.16974 20.2201L4.27974 20.5701L4.20974 20.5201ZM5.20974 16.2601L4.99974 19.0001L7.73974 18.7501L18.6397 7.83007C18.8523 7.57855 18.9881 7.2713 19.0312 6.94485C19.0742 6.61839 19.0226 6.28643 18.8826 5.98842C18.7425 5.6904 18.5199 5.43886 18.2411 5.26366C17.9623 5.08846 17.639 4.99697 17.3097 5.00007C17.0933 4.98633 16.8764 5.01645 16.6719 5.08862C16.4674 5.16079 16.2796 5.27353 16.1197 5.42007L5.20974 16.2601Z" fill="#C26DBC"/>
</svg>
