<svg width="37" height="37" viewBox="0 0 37 37" fill="none" xmlns="http://www.w3.org/2000/svg">
<path d="M18.5 0.125C14.8658 0.125 11.3131 1.20268 8.29139 3.22175C5.26964 5.24082 2.91447 8.1106 1.52371 11.4682C0.132946 14.8258 -0.23094 18.5204 0.478063 22.0848C1.18707 25.6492 2.93712 28.9233 5.50691 31.4931C8.0767 34.0629 11.3508 35.8129 14.9152 36.5219C18.4796 37.2309 22.1742 36.8671 25.5318 35.4763C28.8894 34.0855 31.7592 31.7304 33.7782 28.7086C35.7973 25.6868 36.875 22.1342 36.875 18.5C36.875 13.6266 34.9391 8.95289 31.4931 5.50691C28.0471 2.06093 23.3733 0.125 18.5 0.125ZM18.5 33.8125C15.4715 33.8125 12.511 32.9144 9.99282 31.2319C7.4747 29.5493 5.51205 27.1578 4.35309 24.3598C3.19412 21.5618 2.89088 18.483 3.48172 15.5127C4.07255 12.5423 5.53093 9.81392 7.67242 7.67243C9.81391 5.53094 12.5423 4.07256 15.5127 3.48173C18.483 2.89089 21.5618 3.19413 24.3598 4.35309C27.1578 5.51206 29.5493 7.4747 31.2319 9.99283C32.9144 12.511 33.8125 15.4715 33.8125 18.5C33.8125 22.5611 32.1992 26.4559 29.3276 29.3276C26.4559 32.1992 22.5611 33.8125 18.5 33.8125Z" fill="#C26DBC"/>
<path d="M13.8042 9.72071C13.1882 10.3376 12.6999 11.0699 12.3671 11.8756C12.0343 12.6814 11.8635 13.5448 11.8646 14.4165C11.8646 14.8227 12.0259 15.2121 12.3131 15.4993C12.6002 15.7865 12.9897 15.9478 13.3958 15.9478C13.8019 15.9478 14.1914 15.7865 14.4786 15.4993C14.7657 15.2121 14.9271 14.8227 14.9271 14.4165C14.9246 13.9467 15.0153 13.481 15.1941 13.0464C15.3728 12.6118 15.636 12.217 15.9683 11.8849C16.6514 11.2357 17.5577 10.8738 18.5 10.8738C19.4423 10.8738 20.3486 11.2357 21.0317 11.8849C21.5406 12.3835 21.8888 13.0228 22.0316 13.7208C22.1745 14.4188 22.1054 15.1435 21.8332 15.8019C21.5611 16.4603 21.0983 17.0224 20.5044 17.4158C19.9104 17.8092 19.2124 18.0161 18.5 18.0099C18.0955 18.0152 17.7091 18.1782 17.4231 18.4642C17.137 18.7502 16.974 19.1367 16.9687 19.5411V21.5828C16.9687 21.9889 17.1301 22.3784 17.4172 22.6656C17.7044 22.9527 18.0939 23.114 18.5 23.114C18.9061 23.114 19.2956 22.9527 19.5827 22.6656C19.8699 22.3784 20.0312 21.9889 20.0312 21.5828V20.8886C21.2308 20.6141 22.328 20.0053 23.1958 19.1328C24.4376 17.8855 25.1347 16.197 25.1347 14.437C25.1347 12.6769 24.4376 10.9885 23.1958 9.74113C21.9312 8.5349 20.2517 7.86026 18.5041 7.85646C16.7564 7.85266 15.074 8.52 13.8042 9.72071Z" fill="#C26DBC"/>
<path d="M18.5 29.7292C19.9095 29.7292 21.0521 28.5866 21.0521 27.1771C21.0521 25.7676 19.9095 24.625 18.5 24.625C17.0905 24.625 15.9479 25.7676 15.9479 27.1771C15.9479 28.5866 17.0905 29.7292 18.5 29.7292Z" fill="#C26DBC"/>
</svg>
