<svg width="50" height="50" viewBox="0 0 50 50" fill="none" xmlns="http://www.w3.org/2000/svg">
<path d="M45.625 14.6875H37.375V13.3125C37.375 10.0304 36.0712 6.88282 33.7504 4.56205C31.4297 2.24129 28.2821 0.9375 25 0.9375C21.7179 0.9375 18.5703 2.24129 16.2496 4.56205C13.9288 6.88282 12.625 10.0304 12.625 13.3125V14.6875H4.375C3.46332 14.6875 2.58898 15.0497 1.94432 15.6943C1.29966 16.339 0.9375 17.2133 0.9375 18.125V41.5C0.9375 43.5057 1.73426 45.4293 3.1525 46.8475C4.57075 48.2657 6.4943 49.0625 8.5 49.0625H41.5C43.5057 49.0625 45.4293 48.2657 46.8475 46.8475C48.2657 45.4293 49.0625 43.5057 49.0625 41.5V18.125C49.0625 17.2133 48.7003 16.339 48.0557 15.6943C47.411 15.0497 46.5367 14.6875 45.625 14.6875ZM16.75 13.3125C16.75 11.1245 17.6192 9.02604 19.1664 7.47887C20.7135 5.93169 22.812 5.0625 25 5.0625C27.188 5.0625 29.2865 5.93169 30.8336 7.47887C32.3808 9.02604 33.25 11.1245 33.25 13.3125V14.6875H16.75V13.3125ZM44.9375 41.5C44.9375 42.4117 44.5753 43.286 43.9307 43.9307C43.286 44.5753 42.4117 44.9375 41.5 44.9375H8.5C7.58832 44.9375 6.71398 44.5753 6.06932 43.9307C5.42466 43.286 5.0625 42.4117 5.0625 41.5V18.8125H12.625V25C12.625 25.547 12.8423 26.0716 13.2291 26.4584C13.6159 26.8452 14.1405 27.0625 14.6875 27.0625C15.2345 27.0625 15.7591 26.8452 16.1459 26.4584C16.5327 26.0716 16.75 25.547 16.75 25V18.8125H33.25V25C33.25 25.547 33.4673 26.0716 33.8541 26.4584C34.2409 26.8452 34.7655 27.0625 35.3125 27.0625C35.8595 27.0625 36.3841 26.8452 36.7709 26.4584C37.1577 26.0716 37.375 25.547 37.375 25V18.8125H44.9375V41.5Z" fill="#C26DBC"/>
</svg>
