<svg width="20" height="18" viewBox="0 0 20 18" fill="none" xmlns="http://www.w3.org/2000/svg">
<path d="M19.12 6.87993C19.0781 6.74707 18.9996 6.62872 18.8935 6.5385C18.7873 6.44828 18.6579 6.38985 18.52 6.36993L13.1 5.57993L10.67 0.669932C10.6008 0.553905 10.5027 0.457827 10.3853 0.391106C10.2678 0.324384 10.1351 0.289307 10 0.289307C9.86493 0.289307 9.73217 0.324384 9.61472 0.391106C9.49727 0.457827 9.39917 0.553905 9.33 0.669932L6.9 5.57993L1.48 6.36993C1.34213 6.38985 1.21268 6.44828 1.10653 6.5385C1.00039 6.62872 0.921871 6.74707 0.880004 6.87993C0.835308 7.01231 0.828477 7.15453 0.860281 7.29058C0.892084 7.42663 0.961258 7.55109 1.06 7.64993L5 11.4699L4.07 16.8699C4.04643 17.009 4.06201 17.1518 4.11499 17.2825C4.16797 17.4132 4.25627 17.5266 4.37 17.6099C4.48392 17.6911 4.61827 17.7388 4.75787 17.7476C4.89747 17.7565 5.03676 17.7261 5.16 17.6599L10 15.1099L14.85 17.6599C14.9573 17.7188 15.0776 17.7497 15.2 17.7499C15.3573 17.7481 15.5106 17.6994 15.64 17.6099C15.7537 17.5266 15.842 17.4132 15.895 17.2825C15.948 17.1518 15.9636 17.009 15.94 16.8699L15 11.4699L18.93 7.64993C19.0305 7.55217 19.1015 7.4282 19.1351 7.2921C19.1687 7.156 19.1635 7.01321 19.12 6.87993Z" fill="#C26DBC"/>
</svg>
