<svg width="18" height="18" viewBox="0 0 18 18" fill="none" xmlns="http://www.w3.org/2000/svg">
<path d="M17 5.69971H1C0.901509 5.69971 0.803982 5.68031 0.712987 5.64262C0.621993 5.60493 0.539314 5.54968 0.46967 5.48004C0.400026 5.41039 0.344781 5.32771 0.30709 5.23672C0.269399 5.14573 0.25 5.0482 0.25 4.94971C0.25 4.85122 0.269399 4.75369 0.30709 4.66269C0.344781 4.5717 0.400026 4.48902 0.46967 4.41938C0.539314 4.34973 0.621993 4.29449 0.712987 4.2568C0.803982 4.21911 0.901509 4.19971 1 4.19971H17C17.1989 4.19971 17.3897 4.27873 17.5303 4.41938C17.671 4.56003 17.75 4.75079 17.75 4.94971C17.75 5.14862 17.671 5.33939 17.5303 5.48004C17.3897 5.62069 17.1989 5.69971 17 5.69971Z" fill="#C26DBC"/>
<path d="M13.44 17.7498H4.56C4.24309 17.7715 3.92503 17.73 3.62427 17.6279C3.3235 17.5257 3.04601 17.3648 2.80788 17.1546C2.56975 16.9444 2.37572 16.689 2.23704 16.4032C2.09836 16.1174 2.01779 15.807 2 15.4898V4.9998C2 4.80089 2.07902 4.61012 2.21967 4.46947C2.36032 4.32882 2.55109 4.2498 2.75 4.2498C2.94891 4.2498 3.13968 4.32882 3.28033 4.46947C3.42098 4.61012 3.5 4.80089 3.5 4.9998V15.4898C3.5 15.8998 3.97 16.2498 4.5 16.2498H13.38C13.94 16.2498 14.38 15.8998 14.38 15.4898V4.9998C14.38 4.78498 14.4653 4.57895 14.6172 4.42705C14.7691 4.27514 14.9752 4.1898 15.19 4.1898C15.4048 4.1898 15.6109 4.27514 15.7628 4.42705C15.9147 4.57895 16 4.78498 16 4.9998V15.4898C15.9822 15.807 15.9016 16.1174 15.763 16.4032C15.6243 16.689 15.4303 16.9444 15.1921 17.1546C14.954 17.3648 14.6765 17.5257 14.3757 17.6279C14.075 17.73 13.7569 17.7715 13.44 17.7498ZM13.56 4.7498C13.4611 4.75115 13.363 4.73267 13.2714 4.69545C13.1798 4.65824 13.0966 4.60304 13.0267 4.53313C12.9568 4.46322 12.9016 4.38 12.8644 4.2884C12.8271 4.1968 12.8087 4.09867 12.81 3.9998V2.5098C12.81 2.0998 12.33 1.7498 11.81 1.7498H6.22C5.67 1.7498 5.22 2.0998 5.22 2.5098V3.9998C5.22 4.19871 5.14098 4.38948 5.00033 4.53013C4.85968 4.67078 4.66891 4.7498 4.47 4.7498C4.27109 4.7498 4.08032 4.67078 3.93967 4.53013C3.79902 4.38948 3.72 4.19871 3.72 3.9998V2.5098C3.75872 1.88111 4.04203 1.29257 4.50929 0.870167C4.97655 0.447768 5.5906 0.225088 6.22 0.249802H11.78C12.4145 0.216989 13.0362 0.436021 13.51 0.859253C13.9838 1.28249 14.2713 1.87568 14.31 2.5098V3.9998C14.3113 4.09913 14.2929 4.19773 14.2558 4.28989C14.2187 4.38204 14.1637 4.4659 14.0939 4.53661C14.0241 4.60731 13.941 4.66346 13.8493 4.70177C13.7577 4.74008 13.6593 4.75981 13.56 4.7598V4.7498Z" fill="#C26DBC"/>
<path d="M7.21973 13.9997C7.02162 13.9971 6.83235 13.9173 6.69226 13.7772C6.55217 13.6371 6.47232 13.4478 6.46973 13.2497V8.71973C6.46973 8.52081 6.54874 8.33005 6.6894 8.1894C6.83005 8.04874 7.02081 7.96973 7.21973 7.96973C7.41864 7.96973 7.6094 8.04874 7.75006 8.1894C7.89071 8.33005 7.96973 8.52081 7.96973 8.71973V13.2397C7.97105 13.3391 7.95263 13.4377 7.91553 13.5298C7.87843 13.622 7.8234 13.7058 7.75362 13.7765C7.68385 13.8472 7.60072 13.9034 7.50907 13.9417C7.41742 13.98 7.31907 13.9997 7.21973 13.9997Z" fill="#C26DBC"/>
<path d="M10.7803 13.9997C10.5814 13.9997 10.3906 13.9207 10.2499 13.7801C10.1093 13.6394 10.0303 13.4486 10.0303 13.2497V8.71973C10.0303 8.52081 10.1093 8.33005 10.2499 8.1894C10.3906 8.04874 10.5814 7.96973 10.7803 7.96973C10.9792 7.96973 11.17 8.04874 11.3106 8.1894C11.4513 8.33005 11.5303 8.52081 11.5303 8.71973V13.2397C11.5303 13.4396 11.4516 13.6314 11.3112 13.7736C11.1709 13.9159 10.9801 13.9971 10.7803 13.9997Z" fill="#C26DBC"/>
</svg>
